<svg width="900" height="900" viewBox="0 0 900 900" fill="none" xmlns="http://www.w3.org/2000/svg">
  <rect width="900" height="900" fill="#060B10"/>
  <rect x="46" y="46" width="808" height="808" rx="40" fill="#0A1218" stroke="#8DD9FF" stroke-opacity="0.20"/>
  <g opacity="0.9">
    <path d="M145 660C218 544 252 484 318 436C431 354 520 322 692 218" stroke="#8DD9FF" stroke-width="4" stroke-linecap="round"/>
    <path d="M146 624C238 690 316 694 394 670C506 636 590 546 682 501" stroke="#8DD9FF" stroke-opacity="0.55" stroke-width="3" stroke-linecap="round"/>
    <path d="M178 300C228 262 286 232 359 236C453 241 528 331 610 372C656 393 713 399 765 388" stroke="#8DD9FF" stroke-opacity="0.4" stroke-width="3" stroke-linecap="round"/>
  </g>
  <g fill="#A5E8FF">
    <circle cx="145" cy="660" r="12" fill="#8DD9FF"/>
    <circle cx="318" cy="436" r="12" fill="#8DD9FF"/>
    <circle cx="520" cy="322" r="12" fill="#8DD9FF"/>
    <circle cx="692" cy="218" r="12" fill="#8DD9FF"/>
    <circle cx="394" cy="670" r="12" fill="#8DD9FF"/>
    <circle cx="682" cy="501" r="12" fill="#8DD9FF"/>
  </g>
  <g>
    <rect x="132" y="132" width="210" height="120" rx="22" fill="#0F2028" stroke="#8DD9FF" stroke-opacity="0.35"/>
    <rect x="540" y="128" width="170" height="136" rx="22" fill="#0F2028" stroke="#8DD9FF" stroke-opacity="0.35"/>
    <rect x="530" y="522" width="176" height="124" rx="22" fill="#0F2028" stroke="#8DD9FF" stroke-opacity="0.35"/>
    <rect x="156" y="508" width="194" height="128" rx="22" fill="#0F2028" stroke="#8DD9FF" stroke-opacity="0.35"/>
  </g>
  <g fill="#D9F7FF" font-family="Arial, sans-serif" letter-spacing="2">
    <text x="184" y="204" font-size="22">PINN</text>
    <text x="592" y="205" font-size="20">SIM</text>
    <text x="592" y="590" font-size="20">GNN</text>
    <text x="212" y="585" font-size="20">ALERT</text>
  </g>
  <text x="310" y="770" fill="#8DD9FF" font-family="Arial, sans-serif" font-size="44" letter-spacing="8">PRAJNA</text>
</svg>
